<svg xmlns="http://www.w3.org/2000/svg" version="1.1" xmlns:xlink="http://www.w3.org/1999/xlink" xmlns:svgjs="http://svgjs.dev/svgjs" viewBox="0 0 800 400"><path d="M694.4844018328488 107.80736008024599C648.8939629900754 101.67880986865744 511.8236860939164 70.58762843148295 420.94176877620816 71.03605881071474C330.05985145849985 71.48448918994652 177.89244728369513 85.38583348926291 149.1928979265988 110.49794235563661C120.49334856950243 135.61005122201033 172.2123376238644 205.56521327035014 248.74447263363004 221.70871200895692C325.27660764339566 237.8522107475637 592.2422092465857 219.1676061027883 608.3857079851925 207.35893478727724C624.5292067237993 195.55026347176616 360.25419248226285 160.42320226367698 345.60546506527066 150.85668411589052C330.9567376482785 141.29016596810408 515.2616540301144 132.7699900342662 520.4933434832394 149.95982590055849C525.7250329363644 167.1496617668508 383.1241519956092 239.19749425586448 376.99560178402066 253.99569931364442C370.8670515724321 268.79390437142433 479.2377384213905 243.68179041878764 483.72204221370816 238.74905624723817C488.20634600602585 233.8163220756887 421.8386447934608 206.91050186491395 403.9014245379269 224.39929428434755C385.96420428239304 241.88808670378114 362.49632911963266 331.2752326998749 376.09872068050504 343.68181076383974C389.7011122413774 356.0883888278046 482.2272810646196 291.51440150277205 485.5157739031613 298.8387626681366C488.804266741703 306.1631238335012 404.6488101987342 373.1287254366913 395.82967771175504 387.62797775602724C387.01054522477585 402.1272300753632 429.31249122900766 382.24682846403505 432.6009789812863 385.83427658415224C435.8894667335649 389.4217247042694 418.4006666847368 405.2662681613007 415.5606042254269 409.15266647673036 " fill="none" stroke-width="25" stroke="url(&quot;#SvgjsLinearGradient1000&quot;)" stroke-linecap="butt" transform="matrix(0.9396926207859084,0.3420201433256687,-0.3420201433256687,0.9396926207859084,91.28468742817904,-137.1264416348506)"></path><defs><linearGradient id="SvgjsLinearGradient1000"><stop stop-color="hsl(37, 99%, 67%)" offset="0"></stop><stop stop-color="hsl(316, 73%, 52%)" offset="1"></stop></linearGradient></defs></svg>